# xmcd CD database file
# Copyright (C) 1997 Ti Kan
#
# Track frame offsets:
#  150
#  2607
#  15572
#  29475
#  53617
#  72755
#  91487
#  110947
#  113102
#  142025
#  158192
#  186235
#
# Disc length: 2922 seconds
#
# Revision: 1
# Processed by: cddbd v1.4b41PL1 Copyright (c) Steve Scherf et al.
# Submitted via: CDWizzard Release:4.35
#
DISCID=9f0b680c
DTITLE=Fool Proof - No Friction
DYEAR=1900
DGENRE=
TTITLE0=Beale and Baxter
TTITLE1=Lower East Side Jazzbo Panorama Blues
TTITLE2=August WIlson's Urban Blue Blues
TTITLE3=Popeye Blues
TTITLE4=Leg Blues
TTITLE5=Red Car
TTITLE6=Girl's Gonna Drive Me Mad
TTITLE7=West Broadway and 125th
TTITLE8=Love and Happiness
TTITLE9=Shelter Man
TTITLE10=Sidewalking
TTITLE11=Title Nine Blues
EXTD=
EXTT0=
EXTT1=
EXTT2=
EXTT3=
EXTT4=
EXTT5=
EXTT6=
EXTT7=
EXTT8=
EXTT9=
EXTT10=
EXTT11=
PLAYORDER=
